<svg viewBox="-4.5e-7 0 18 16.00000191" xmlns="http://www.w3.org/2000/svg"><path fill="#394eff" d="M17.9994962 13.8635v-.011c-.0005038-.0165-.0010075-.032-.0020151-.0475 0-.0015 0-.003-.0005038-.0045-.0005037-.014-.0015113-.029-.0025189-.0435-.0005037-.004-.0005037-.0075-.0010075-.0105-.0010076-.016-.0025189-.0315-.0040302-.0465-.0005038-.0025-.0005038-.005-.0005038-.007-.0015114-.0135-.0030227-.0275-.0050378-.0415-.0005038-.0035-.0010076-.0065-.0015113-.01-.0020152-.0155-.0040303-.0305-.0060454-.0455-.0005038-.003-.0010075-.0055-.0015113-.0085l-.0065491-.0395-.0015114-.0095c-.0030226-.015-.0060453-.0295-.009068-.0445-.0005038-.003-.0010075-.0065-.0015113-.0095-.0030227-.013-.0060454-.0265-.009068-.039l-.0015114-.0085c-.0035264-.0145-.0070529-.029-.0110831-.0435-.0005038-.003-.0015113-.006-.0025189-.01-.0035264-.013-.0070529-.0265-.0105793-.0395l-.0015114-.006c-.004534-.0145-.0085642-.0285-.0130982-.0435-.0015113-.003-.0020151-.006-.0035264-.0095-.0040303-.014-.0085643-.0275-.0130983-.041-.0005038-.001-.0005038-.002-.0010075-.003-.0050378-.014-.0100756-.0285-.0151134-.0425-.0015113-.0035-.0025189-.007-.0040302-.0105-.0050378-.014-.0105794-.028-.0161209-.0425l-.0005038-.0005c-.0055416-.014-.0110831-.0275-.0166247-.0415-.0015113-.003-.0030227-.006-.004534-.0095-.0060453-.0135-.0115869-.0275-.018136-.041l-.0020151-.0045c-.0055416-.0125-.0115869-.025-.0176323-.037-.0010075-.0035-.0030226-.0065-.004534-.0095-.0060453-.0135-.0125944-.0265-.0196473-.04-.0010076-.002-.0020151-.004-.0035265-.0055-.0060453-.012-.0120907-.0235-.018136-.0355-.0015113-.003-.0030227-.0055-.0050378-.008-.0060453-.012-.0125944-.023-.0191436-.035l-.0030226-.0045c-.0005038-.001-.0010076-.002-.0020151-.0035l-.0040303-.008-.1057934-.181-3.3375315-5.7255-3.4413098-5.904C10.4670025.4235 9.78337531 0 9 0S7.5324937.4235 7.16876574 1.0515l-3.44130982 5.904-3.3370277 5.7255-.10579346.181-.004534.008-.00201512.0035-.00251889.0045c-.00654912.012-.01309824.023-.01964736.035-.00151133.0025-.00302267.005-.004534.008-.00654912.012-.01259446.0235-.0186398.0355-.00100755.0015-.00201511.0035-.00302267.0055-.0070529.0135-.01360201.0265-.02015113.04-.00151134.003-.00302267.006-.004534.0095-.00554157.012-.0115869.0245-.01712847.037l-.0025189.0045c-.00604533.0135-.01209067.0275-.01763223.041-.00151134.0035-.00302267.0065-.004534.0095-.00604535.014-.01108313.0275-.0166247.0415l-.00050377.0005-.01662469.0425-.00352645.0105c-.00503778.014-.01057934.0285-.01511335.0425-.00050377.001-.00050377.002-.00100755.003-.00503779.0135-.00906801.027-.01360202.041l-.00302267.0095c-.004534.015-.009068.029-.01309823.0435l-.00151134.006c-.00403023.013-.0070529.0265-.01108312.0395-.00050378.0035-.00151134.007-.0025189.01l-.01057934.0435-.00201511.0085c-.00302267.0125-.00554156.026-.00856423.039-.00050378.003-.00151134.0065-.00201512.0095-.00302267.015-.00604534.0295-.00856423.0445-.00050378.003-.00100756.006-.00151133.0095-.0025189.0135-.00453401.0265-.00654912.0395-.00050378.003-.00100756.0055-.00151134.0085-.00251889.015-.004534.03-.00654912.0455-.00050377.0035-.00050377.0065-.00100755.01-.00201512.014-.00352645.028-.00503779.0415 0 .002-.00050377.0045-.00050377.007-.00151134.015-.00302267.0305-.00403023.0465-.00050378.003-.00100756.0065-.00100756.0105-.00100755.0145-.00201511.0295-.00302267.0435v.0045c-.00100755.0155-.00151133.031-.00201511.0475 0 .0035 0 .007-.00050378.011v.048C0 15.065.9440806 16 2.10881612 16c.22115869 0 .43375315-.0335.63425693-.096l5.9254408-1.94c.10428212-.034.21561713-.0525.33148615-.0525.11586902 0 .22720403.0185.33098237.0525l5.92594463 1.94c.2.0625.4130982.096.6342569.096C17.0559194 16 18 15.065 18 13.9115c0-.0165 0-.032-.0005038-.048"/></svg>
